<?xml version="1.0" encoding="UTF-8" standalone="no"?>
<!-- Generator: Adobe Illustrator 19.0.1, SVG Export Plug-In . SVG Version: 6.00 Build 0)  -->

<svg
   version="1.1"
   id="Layer_1"
   x="0px"
   y="0px"
   width="806px"
   height="598.9px"
   viewBox="-556 241.1 806 598.9"
   style="enable-background:new -556 241.1 806 598.9;"
   xml:space="preserve"
   sodipodi:docname="base.svg"
   inkscape:version="1.3.2 (091e20e, 2023-11-25, custom)"
   xmlns:inkscape="http://www.inkscape.org/namespaces/inkscape"
   xmlns:sodipodi="http://sodipodi.sourceforge.net/DTD/sodipodi-0.dtd"
   xmlns:xlink="http://www.w3.org/1999/xlink"
   xmlns="http://www.w3.org/2000/svg"
   xmlns:svg="http://www.w3.org/2000/svg"><sodipodi:namedview
   id="namedview1"
   pagecolor="#000000"
   bordercolor="#000000"
   borderopacity="0.25"
   inkscape:showpageshadow="2"
   inkscape:pageopacity="0.0"
   inkscape:pagecheckerboard="0"
   inkscape:deskcolor="#d1d1d1"
   inkscape:zoom="1.3574887"
   inkscape:cx="367.22221"
   inkscape:cy="297.9767"
   inkscape:window-width="1920"
   inkscape:window-height="1009"
   inkscape:window-x="-8"
   inkscape:window-y="398"
   inkscape:window-maximized="1"
   inkscape:current-layer="Layer_1"
   showgrid="false" /><defs
   id="defs147"><linearGradient
     id="linearGradient149"><stop
       style="stop-color:#000000;stop-opacity:1;"
       offset="0"
       id="stop149" /><stop
       style="stop-color:#000000;stop-opacity:0;"
       offset="1"
       id="stop150" /></linearGradient><linearGradient
     id="linearGradient147"><stop
       style="stop-color:#000000;stop-opacity:1;"
       offset="0"
       id="stop147" /><stop
       style="stop-color:#000000;stop-opacity:0;"
       offset="1"
       id="stop148" /></linearGradient><linearGradient
     xlink:href="#linearGradient147"
     id="linearGradient148"
     x1="-556.60013"
     y1="597.03282"
     x2="250.6"
     y2="597.03282"
     gradientUnits="userSpaceOnUse" /><linearGradient
     xlink:href="#linearGradient149"
     id="linearGradient150"
     x1="-447.92723"
     y1="286.53188"
     x2="141.82723"
     y2="286.53188"
     gradientUnits="userSpaceOnUse" /></defs>
<style
   type="text/css"
   id="style1">
	.st0{fill:none;}
	.st1{fill:#B3B3B3;}
	.st2{fill:#FFFFFF;}
	.st3{fill:#c42c65;}
	.st4{fill:#a60e34;}
	.st5{fill:#121212;}
	.st6{fill:#080808;}
	.st7{opacity:0.12;}
	.st8{fill:url(#SVGID_5_);}
	.st9{fill:#1F1F1F;}
	.st10{fill:#303135;}
	.st11{fill:#2c2c2c;}
	.st12{fill:#2C2C2C;}
	.st13{fill:#222222;}
	.st14{fill:#FF6666;}
	.st15{fill:#7CB2E8;}
	.st16{fill:#FF69F8;}
	.st17{fill:#40E2A0;}
	.st18{fill:#050505;stroke:#000000;stroke-width:2;stroke-miterlimit:10;}
	.st19{fill:#F2F2F2;}
	.st20{opacity:0.1;fill:#E6E6E6;enable-background:new    ;}
	.st21{opacity:8.000000e-002;fill:url(#SVGID_6_);enable-background:new    ;}
	.st22{opacity:0.22;enable-background:new    ;}
	.st23{opacity:8.000000e-002;fill:url(#SVGID_7_);enable-background:new    ;}
	.st24{opacity:0.25;enable-background:new    ;}
	.st25{fill:#0B0B0F;}
	.st26{opacity:0.2;}
	.st27{fill:url(#SVGID_8_);}
	.st28{opacity:0.25;}
	.st29{display:none;}
	.st30{display:inline;}
	.st31{fill:#EDEDED;}
	.st32{fill:#F5F5F5;}
	.st33{display:inline;opacity:8.000000e-002;}
</style>
<pattern
   x="-556"
   y="840"
   width="71"
   height="71"
   patternUnits="userSpaceOnUse"
   id="SVGID_1_"
   viewBox="0 -71 71 71"
   style="overflow:visible;">
	<g
   id="g3">
		<polygon
   class="st0"
   points="0,0 71,0 71,-71 0,-71   "
   id="polygon1" />
		<g
   id="g2">
			<polygon
   class="st0"
   points="0,0 71,0 71,-71 0,-71    "
   id="polygon2" />
			<path
   class="st1"
   d="M41.8-35.5c0-3.5-2.8-6.3-6.3-6.3s-6.3,2.8-6.3,6.3s2.8,6.3,6.3,6.3S41.8-32,41.8-35.5z"
   id="path2" />
		</g>
	</g>
</pattern>
<pattern
   x="-556"
   y="840"
   width="40"
   height="103"
   patternUnits="userSpaceOnUse"
   id="SVGID_2_"
   viewBox="0 -231.7 40 103"
   style="overflow:visible;">
	<g
   id="g20">
		<polygon
   class="st0"
   points="0,-128.7 40,-128.7 40,-231.7 0,-231.7   "
   id="polygon3" />
		<g
   id="g19">
			<polygon
   class="st0"
   points="0,-128.7 40,-128.7 40,-231.7 0,-231.7    "
   id="polygon4" />
			<polygon
   points="34.5,-360.5 37.5,-360.5 37.5,-206 34.5,-206    "
   id="polygon5" />
			<polygon
   points="26.5,-360.5 29.5,-360.5 29.5,-206 26.5,-206    "
   id="polygon6" />
			<polygon
   points="18.5,-360.5 21.5,-360.5 21.5,-206 18.5,-206    "
   id="polygon7" />
			<polygon
   points="10.5,-360.5 13.5,-360.5 13.5,-206 10.5,-206    "
   id="polygon8" />
			<polygon
   points="2.5,-360.5 5.5,-360.5 5.5,-206 2.5,-206    "
   id="polygon9" />
			<polygon
   points="34.5,-257.5 37.5,-257.5 37.5,-103 34.5,-103    "
   id="polygon10" />
			<polygon
   points="26.5,-257.5 29.5,-257.5 29.5,-103 26.5,-103    "
   id="polygon11" />
			<polygon
   points="18.5,-257.5 21.5,-257.5 21.5,-103 18.5,-103    "
   id="polygon12" />
			<polygon
   points="10.5,-257.5 13.5,-257.5 13.5,-103 10.5,-103    "
   id="polygon13" />
			<polygon
   points="2.5,-257.5 5.5,-257.5 5.5,-103 2.5,-103    "
   id="polygon14" />
			<polygon
   points="34.5,-154.5 37.5,-154.5 37.5,0 34.5,0    "
   id="polygon15" />
			<polygon
   points="26.5,-154.5 29.5,-154.5 29.5,0 26.5,0    "
   id="polygon16" />
			<polygon
   points="18.5,-154.5 21.5,-154.5 21.5,0 18.5,0    "
   id="polygon17" />
			<polygon
   points="10.5,-154.5 13.5,-154.5 13.5,0 10.5,0    "
   id="polygon18" />
			<polygon
   points="2.5,-154.5 5.5,-154.5 5.5,0 2.5,0    "
   id="polygon19" />
		</g>
	</g>
</pattern>
<pattern
   x="-556"
   y="840"
   width="40"
   height="103"
   patternUnits="userSpaceOnUse"
   id="SVGID_3_"
   viewBox="0 -231.7 40 103"
   style="overflow:visible;">
	<g
   id="g37">
		<polygon
   class="st0"
   points="0,-128.7 40,-128.7 40,-231.7 0,-231.7   "
   id="polygon20" />
		<g
   id="g36">
			<polygon
   class="st0"
   points="0,-128.7 40,-128.7 40,-231.7 0,-231.7    "
   id="polygon21" />
			<polygon
   points="34.5,-360.5 37.5,-360.5 37.5,-206 34.5,-206    "
   id="polygon22" />
			<polygon
   points="26.5,-360.5 29.5,-360.5 29.5,-206 26.5,-206    "
   id="polygon23" />
			<polygon
   points="18.5,-360.5 21.5,-360.5 21.5,-206 18.5,-206    "
   id="polygon24" />
			<polygon
   points="10.5,-360.5 13.5,-360.5 13.5,-206 10.5,-206    "
   id="polygon25" />
			<polygon
   points="2.5,-360.5 5.5,-360.5 5.5,-206 2.5,-206    "
   id="polygon26" />
			<polygon
   points="34.5,-257.5 37.5,-257.5 37.5,-103 34.5,-103    "
   id="polygon27" />
			<polygon
   points="26.5,-257.5 29.5,-257.5 29.5,-103 26.5,-103    "
   id="polygon28" />
			<polygon
   points="18.5,-257.5 21.5,-257.5 21.5,-103 18.5,-103    "
   id="polygon29" />
			<polygon
   points="10.5,-257.5 13.5,-257.5 13.5,-103 10.5,-103    "
   id="polygon30" />
			<polygon
   points="2.5,-257.5 5.5,-257.5 5.5,-103 2.5,-103    "
   id="polygon31" />
			<polygon
   points="34.5,-154.5 37.5,-154.5 37.5,0 34.5,0    "
   id="polygon32" />
			<polygon
   points="26.5,-154.5 29.5,-154.5 29.5,0 26.5,0    "
   id="polygon33" />
			<polygon
   points="18.5,-154.5 21.5,-154.5 21.5,0 18.5,0    "
   id="polygon34" />
			<polygon
   points="10.5,-154.5 13.5,-154.5 13.5,0 10.5,0    "
   id="polygon35" />
			<polygon
   points="2.5,-154.5 5.5,-154.5 5.5,0 2.5,0    "
   id="polygon36" />
		</g>
	</g>
</pattern>
<pattern
   x="-556"
   y="840"
   width="71"
   height="71"
   patternUnits="userSpaceOnUse"
   id="SVGID_4_"
   viewBox="0 -71 71 71"
   style="overflow:visible;">
	<g
   id="g39">
		<polygon
   class="st0"
   points="0,0 71,0 71,-71 0,-71   "
   id="polygon37" />
		<g
   id="g38">
			<polygon
   class="st0"
   points="0,0 71,0 71,-71 0,-71    "
   id="polygon38" />
			<path
   class="st2"
   d="M41.8-35.5c0-3.5-2.8-6.3-6.3-6.3s-6.3,2.8-6.3,6.3s2.8,6.3,6.3,6.3S41.8-32,41.8-35.5z"
   id="path38" />
		</g>
	</g>
</pattern>
<g
   id="g128"
   style="fill:none;stroke:#ffffff;stroke-opacity:1;stroke-width:1;stroke-dasharray:none">
	<g
   id="g55"
   style="fill:none;stroke:#ffffff;stroke-opacity:1;stroke-width:3.5;stroke-dasharray:none">
		<g
   id="g54"
   style="fill:none;stroke:#ffffff;stroke-opacity:1;stroke-width:3.5;stroke-dasharray:none">
			<g
   id="g53"
   style="fill:none;stroke:#ffffff;stroke-opacity:1;stroke-width:3.5;stroke-dasharray:none">
				<path
   class="st3"
   d="m 245.3,659.8 c -2.9,-15.5 -17.7,-102.5 -32,-144.6 -9.4,-27.7 -13.1,-53 -17,-64.9 -12,-35.7 -33,-65.7 -33,-65.7 0,0 -9.5,-13.1 -10.1,-16.3 -0.6,-3.3 -4.7,-8.6 -4.7,-8.6 0,0 -17.4,-5.7 -62.3,-5.7 -44.9,0 -53.7,5 -53.7,5 0,0 -2.4,2.9 -5.9,4.8 -3.5,1.8 -11.7,1.7 -11.7,1.7 h -33.4 c 0,0 -0.6,-0.1 -0.9,0.3 -0.4,0.4 -0.6,2 -0.6,2 h -133 -133.1 c 0,0 -0.3,-1.7 -0.6,-2 -0.4,-0.4 -0.9,-0.3 -0.9,-0.3 H -321 c 0,0 -8.2,0.2 -11.7,-1.7 -3.5,-1.8 -5.9,-4.8 -5.9,-4.8 0,0 -8.8,-5 -53.7,-5 -44.8,0 -62.3,5.7 -62.3,5.7 0,0 -4.1,5.3 -4.7,8.6 -0.6,3.3 -10.1,16.3 -10.1,16.3 0,0 -21,30 -33,65.7 -4,11.9 -7.7,37.2 -17,64.9 -14.3,42.1 -29.1,129.1 -32,144.6 -4.3,23.2 -4.7,90.1 -4.7,90.1 0,0 4.5,53.4 36.2,74.9 31.7,21.5 56.7,14 56.7,14 0,0 33.1,-8.2 57.8,-41.9 24.7,-33.7 56.6,-129.2 56.6,-129.2 0,0 2.2,-3 5.7,-5.3 3.5,-2.3 6.3,-2.6 6.3,-2.6 0,0 23.82116,20.31104 54.83547,22.12938 31.0143,1.81834 54.09794,-22.07056 54.09794,-22.07056 L -153.1,659.9 l 75.188688,-0.0409 c 0,0 21.544537,22.27892 52.118383,21.88579 C 4.7809169,681.35174 30.6,659.8 30.6,659.8 c 0,0 2.8,0.3 6.3,2.6 3.5,2.3 5.7,5.3 5.7,5.3 0,0 31.9,95.4 56.6,129.2 24.7,33.8 57.8,41.9 57.8,41.9 0,0 25,7.5 56.7,-14 31.7,-21.5 36.2,-74.9 36.2,-74.9 0,0 -0.2,-67 -4.6,-90.1 z"
   id="path39"
   style="display:inline;fill:none;stroke:#ffffff;stroke-width:3.5;stroke-dasharray:none;stroke-opacity:1" />
				<g
   id="g42"
   style="fill:none;stroke:#ffffff;stroke-opacity:1;stroke-width:3.5;stroke-dasharray:none">
					<g
   id="g41"
   style="fill:none;stroke:#ffffff;stroke-opacity:1;stroke-width:3.5;stroke-dasharray:none">
						<g
   id="g40"
   style="fill:none;stroke:#ffffff;stroke-opacity:1;stroke-width:3.5;stroke-dasharray:none">
							<path
   class="st4"
   d="M-519.4,517.1c9.4-27.7,13.1-53,17-64.9c12-35.7,33-65.7,33-65.7s9.5-13.1,10.1-16.3         c0.6-3.3,4.7-8.6,4.7-8.6s17.4-5.7,62.3-5.7c44.8,0,53.7,5,53.7,5s2.4,2.9,5.9,4.8c3.5,1.8,11.7,1.7,11.7,1.7h33.4         c0,0,0.6-0.1,0.9,0.3c0.4,0.4,0.6,2,0.6,2H-153h133.1c0,0,0.3-1.7,0.6-2c0.4-0.4,0.9-0.3,0.9-0.3H15c0,0,8.2,0.2,11.7-1.7         c3.5-1.8,5.9-4.8,5.9-4.8s8.8-5,53.7-5s62.3,5.7,62.3,5.7s4.1,5.3,4.7,8.6c0.6,3.3,10.1,16.3,10.1,16.3s21,30,33,65.7         c4,11.9,7.7,37.2,17,64.9c14.3,42.1,29.1,129.1,32,144.6c3.9,20.9,4.6,77.3,4.7,88.3c0-0.1,0-0.1,0-0.1s-0.3-66.9-4.7-90.1         c-2.9-15.5-17.7-102.5-32-144.6c-9.4-27.7-13.1-53-17-64.9c-12-35.7-33-65.7-33-65.7s-9.5-13.1-10.1-16.3         c-0.6-3.3-4.7-8.6-4.7-8.6s-17.4-5.7-62.3-5.7s-53.7,5-53.7,5s-2.4,2.9-5.9,4.8c-3.5,1.8-11.7,1.7-11.7,1.7h-33.4         c0,0-0.6-0.1-0.9,0.3c-0.4,0.4-0.6,2-0.6,2H-153h-133.1c0,0-0.3-1.7-0.6-2c-0.4-0.4-0.9-0.3-0.9-0.3H-321         c0,0-8.2,0.2-11.7-1.7c-3.5-1.8-5.9-4.8-5.9-4.8s-8.8-5-53.7-5c-44.8,0-62.3,5.7-62.3,5.7s-4.1,5.3-4.7,8.6         c-0.6,3.3-10.1,16.3-10.1,16.3s-21,30-33,65.7c-4,11.9-7.7,37.2-17,64.9c-14.3,42.1-29.1,129.1-32,144.6         c-4.3,23.2-4.7,90.1-4.7,90.1v0.1c0.1-10.9,0.7-67.4,4.7-88.3C-548.4,646.3-533.7,559.2-519.4,517.1z"
   id="path40"
   style="fill:none;stroke:#ffffff;stroke-opacity:1;stroke-width:3.5;stroke-dasharray:none" />
						</g>
					</g>
				</g>
				<path
   class="st4"
   d="M-204.8,601.1c0-42.2-34.3-76.5-76.5-76.5s-76.5,34.3-76.5,76.5c0,0.7,0,1.3,0.1,2c0,0.7-0.1,1.3-0.1,2      c0,42.2,34.3,76.5,76.5,76.5s76.5-34.3,76.5-76.5c0-0.7,0-1.3-0.1-2C-204.9,602.4-204.8,601.7-204.8,601.1z"
   id="path42"
   style="fill:none;stroke:#ffffff;stroke-opacity:1;stroke-width:3.5;stroke-dasharray:none" />
				
				
				<path
   class="st4"
   d="m 51.8,601.1 c 0,-42.2 -34.3,-76.5 -76.5,-76.5 -42.2,0 -76.5,34.3 -76.5,76.5 0,0.7 0,1.3 0.1,2 0,0.7 -0.1,1.3 -0.1,2 0,42.2 34.3,76.5 76.5,76.5 42.2,0 76.5,-34.3 76.5,-76.5 0,-0.7 0,-1.3 -0.1,-2 0.1,-0.7 0.1,-1.4 0.1,-2 z"
   id="path43"
   style="display:inline;fill:none;stroke:#ffffff;stroke-opacity:1;stroke-width:3.5;stroke-dasharray:none" />
				
				
				
				
				
				<g
   id="g52"
   style="fill:none;stroke:#ffffff;stroke-opacity:1;stroke-width:3.5;stroke-dasharray:none">
					
					<path
   class="st9"
   d="M-325.6,495.2l9.5-8.9c0.5-0.5,0.5-1.2,0-1.7l-9.5-8.9c-0.7-0.7-1.9-0.2-1.9,0.8v8.9v8.9       C-327.6,495.3-326.4,495.8-325.6,495.2z"
   id="path49"
   style="fill:none;stroke:#ffffff;stroke-opacity:1;stroke-width:3.5;stroke-dasharray:none" />
					<path
   class="st9"
   d="M-411,410.9h8.9h8.9c1,0,1.5-1.2,0.8-1.9l-8.9-9.5c-0.5-0.5-1.2-0.5-1.7,0l-8.9,9.5       C-412.5,409.7-412,410.9-411,410.9z"
   id="path50"
   style="fill:none;stroke:#ffffff;stroke-opacity:1;stroke-width:3.5;stroke-dasharray:none" />
					<path
   class="st9"
   d="M-478.5,475.7l-9.5,8.9c-0.5,0.5-0.5,1.2,0,1.7l9.5,8.9c0.7,0.7,1.9,0.2,1.9-0.8v-8.9v-8.9       C-476.6,475.6-477.8,475-478.5,475.7z"
   id="path51"
   style="fill:none;stroke:#ffffff;stroke-opacity:1;stroke-width:3.5;stroke-dasharray:none" />
					<path
   class="st9"
   d="M-393.2,559.9h-8.9h-8.9c-1,0-1.5,1.2-0.8,1.9l8.9,9.5c0.5,0.5,1.2,0.5,1.7,0l8.9-9.5       C-391.7,561.1-392.2,559.9-393.2,559.9z"
   id="path52"
   style="fill:none;stroke:#ffffff;stroke-opacity:1;stroke-width:3.5;stroke-dasharray:none" />
				</g>
			</g>
		</g>
	</g>
	
	<g
   id="g72"
   style="fill:none;stroke:#ffffff;stroke-opacity:1;stroke-width:3.5;stroke-dasharray:none">
		<g
   id="g69"
   style="fill:none;stroke:#ffffff;stroke-opacity:1;stroke-width:3.5;stroke-dasharray:none">
			<g
   id="g68"
   style="fill:none;stroke:#ffffff;stroke-opacity:1;stroke-width:3.5;stroke-dasharray:none">
				<path
   class="st10"
   d="M141.2,351c0-0.8-0.4-1.5-1.1-1.9c-4.5-2.9-23.4-13.6-51.5-13.6c-26.9,0-41.1,5.9-45.1,8      c-0.8,0.4-1.2,1.2-1.2,2c0,0,9.8-2.9,47.5-2.9S141.2,351,141.2,351z"
   id="path67"
   style="fill:none;stroke:#ffffff;stroke-opacity:1;stroke-width:3.5;stroke-dasharray:none" />
				<path
   class="st11"
   d="M141.1,357.9L141.1,357.9V351c0,0-13.7-8.4-51.4-8.4c-37.8,0-47.5,2.9-47.5,2.9v11l0,0      c7.7-1.3,21.2-2.6,44.1-2.6C114.8,354,132.2,356.3,141.1,357.9z"
   id="path68"
   style="fill:none;stroke:#ffffff;stroke-opacity:1;stroke-width:3.5;stroke-dasharray:none" />
			</g>
		</g>
		<g
   id="g71"
   style="fill:none;stroke:#ffffff;stroke-opacity:1;stroke-width:3.5;stroke-dasharray:none">
			<g
   id="g70"
   style="fill:none;stroke:#ffffff;stroke-opacity:1;stroke-width:3.5;stroke-dasharray:none">
				<path
   class="st10"
   d="M-447.2,351c0-0.8,0.4-1.5,1.1-1.9c4.5-2.9,23.4-13.6,51.5-13.6c26.9,0,41.1,5.9,45.1,8      c0.8,0.4,1.2,1.2,1.2,2c0,0-9.8-2.9-47.5-2.9S-447.2,351-447.2,351z"
   id="path69"
   style="fill:none;stroke:#ffffff;stroke-opacity:1;stroke-width:3.5;stroke-dasharray:none" />
				<path
   class="st11"
   d="M-447.1,357.9L-447.1,357.9V351c0,0,13.7-8.4,51.4-8.4c37.8,0,47.5,2.9,47.5,2.9v11l0,0      c-7.7-1.3-21.2-2.6-44.1-2.6C-420.8,354-438.2,356.3-447.1,357.9z"
   id="path70"
   style="fill:none;stroke:#ffffff;stroke-opacity:1;stroke-width:3.5;stroke-dasharray:none" />
			</g>
		</g>
	</g>
	<g
   id="g84"
   style="fill:none;stroke:#ffffff;stroke-opacity:1;stroke-width:1;stroke-dasharray:none">
		<g
   id="g83"
   style="fill:none;stroke:#ffffff;stroke-opacity:1;stroke-width:1;stroke-dasharray:none">
			<g
   id="g74"
   style="fill:none;stroke:#ffffff;stroke-opacity:1;stroke-width:1;stroke-dasharray:none">
				<g
   id="g73"
   style="fill:none;stroke:#ffffff;stroke-opacity:1;stroke-width:3.5;stroke-dasharray:none">
					<path
   class="st12"
   d="m 153.9,512.1 c -14.5,0 -26.3,-11.8 -26.3,-26.3 0,-14.5 11.8,-26.3 26.3,-26.3 14.5,0 26.3,11.8 26.3,26.3 0,14.5 -11.8,26.3 -26.3,26.3 z"
   id="path72"
   style="display:inline;fill:none;stroke:#ffffff;stroke-opacity:1;stroke-width:3.5;stroke-dasharray:none" />
					
				</g>
				<path
   class="st14"
   d="M153.9,467c-10.4,0-18.9,8.5-18.9,18.9s8.5,18.9,18.9,18.9s18.9-8.5,18.9-18.9      C172.8,475.5,164.4,467,153.9,467z M153.9,501.9c-8.9,0-16-7.2-16-16c0-8.9,7.2-16,16-16s16,7.2,16,16      C170,494.8,162.8,501.9,153.9,501.9z"
   id="path74"
   style="fill:#ffffff;stroke:#ffffff;stroke-opacity:1;stroke-width:1;stroke-dasharray:none;fill-opacity:1" />
			</g>
			<g
   id="g77"
   style="fill:none;stroke:#ffffff;stroke-opacity:1;stroke-width:1;stroke-dasharray:none">
				<g
   id="g76"
   style="fill:none;stroke:#ffffff;stroke-opacity:1;stroke-width:3.5;stroke-dasharray:none">
					<path
   class="st12"
   d="M 96.3,569.7 C 81.8,569.7 70,557.9 70,543.4 c 0,-14.5 11.8,-26.3 26.3,-26.3 14.5,0 26.3,11.8 26.3,26.3 0,14.5 -11.8,26.3 -26.3,26.3 z"
   id="path75"
   style="display:inline;fill:none;stroke:#ffffff;stroke-opacity:1;stroke-width:3.5;stroke-dasharray:none" />
					
				</g>
				<polygon
   class="st15"
   points="110.7,531.1 108.7,529.1 96.3,541.5 84,529.1 82,531.1 94.3,543.5 82,555.8 84,557.9 96.3,545.5      108.7,557.9 110.7,555.8 98.3,543.5     "
   id="polygon76"
   style="fill:#ffffff;stroke:#ffffff;stroke-opacity:1;stroke-width:1;stroke-dasharray:none;fill-opacity:1" />
			</g>
			<g
   id="g79"
   style="fill:none;stroke:#ffffff;stroke-opacity:1;stroke-width:1;stroke-dasharray:none">
				<g
   id="g78"
   style="fill:none;stroke:#ffffff;stroke-opacity:1;stroke-width:3.5;stroke-dasharray:none">
					<path
   class="st12"
   d="m 38.8,512.1 c -14.5,0 -26.3,-11.8 -26.3,-26.3 0,-14.5 11.8,-26.3 26.3,-26.3 14.5,0 26.2,11.9 26.2,26.4 0,14.5 -11.8,26.2 -26.2,26.2 z"
   id="path77"
   style="display:inline;fill:none;stroke:#ffffff;stroke-opacity:1;stroke-width:3.5;stroke-dasharray:none" />
					
				</g>
				<path
   class="st16"
   d="M50.3,471.5h-23h-2.8v2.8v23v2.8h2.8h23h2.8v-2.8v-23v-2.8H50.3z M50.3,497.4h-23v-23h23V497.4z"
   id="path79"
   style="fill:#ffffff;stroke:#ffffff;stroke-opacity:1;stroke-width:1;stroke-dasharray:none;fill-opacity:1" />
			</g>
			<g
   id="g82"
   style="display:inline;fill:none;stroke:#ffffff;stroke-opacity:1;stroke-width:1;stroke-dasharray:none">
				<g
   id="g81"
   style="fill:none;stroke:#ffffff;stroke-opacity:1;stroke-width:3.5;stroke-dasharray:none">
					<path
   class="st12"
   d="M 96.3,454.6 C 81.8,454.6 70,442.8 70,428.3 70,413.8 81.8,402 96.3,402 c 14.5,0 26.3,11.8 26.3,26.3 0,14.5 -11.8,26.3 -26.3,26.3 z"
   id="path80"
   style="display:inline;fill:none;stroke:#ffffff;stroke-opacity:1;stroke-width:3.5;stroke-dasharray:none" />
					
				</g>
				<path
   class="st17"
   d="m 112.3,436.3 -16,-27.6 -16,27.6 -1.6,2.8 h 3.3 14.3 14.3 3.3 z m -16,0 H 83.6 l 12.7,-21.9 12.7,21.9 z"
   id="path82"
   style="display:inline;fill:#ffffff;stroke:#ffffff;stroke-opacity:1;stroke-width:1;stroke-dasharray:none;fill-opacity:1" />
			</g>
		</g>
	</g>
	<g
   id="g96"
   style="fill:none;stroke:#ffffff;stroke-opacity:1;stroke-width:2.6;stroke-dasharray:none">
		<g
   id="g90"
   style="fill:none;stroke:#ffffff;stroke-opacity:1;stroke-width:2.6;stroke-dasharray:none">
			<circle
   cx="-153"
   cy="557.5"
   r="4.1"
   id="circle84"
   style="fill:none;stroke:#ffffff;stroke-opacity:1;stroke-width:2.6;stroke-dasharray:none" />
			<circle
   cx="-153"
   cy="536.6"
   r="4.1"
   id="circle85"
   style="fill:none;stroke:#ffffff;stroke-opacity:1;stroke-width:2.6;stroke-dasharray:none" />
			<circle
   cx="-159.9"
   cy="546.8"
   r="4.1"
   id="circle86"
   style="fill:none;stroke:#ffffff;stroke-opacity:1;stroke-width:2.6;stroke-dasharray:none" />
			<circle
   cx="-174.6"
   cy="546.8"
   r="4.1"
   id="circle87"
   style="fill:none;stroke:#ffffff;stroke-opacity:1;stroke-width:2.6;stroke-dasharray:none" />
			<circle
   cx="-167.3"
   cy="557.5"
   r="4.1"
   id="circle88"
   style="fill:none;stroke:#ffffff;stroke-opacity:1;stroke-width:2.6;stroke-dasharray:none" />
			<circle
   cx="-167.3"
   cy="536.6"
   r="4.1"
   id="circle89"
   style="fill:none;stroke:#ffffff;stroke-opacity:1;stroke-width:2.6;stroke-dasharray:none" />
			<circle
   cx="-181.6"
   cy="536.6"
   r="4.1"
   id="circle90"
   style="fill:none;stroke:#ffffff;stroke-opacity:1;stroke-width:2.6;stroke-dasharray:none" />
		</g>
		<g
   id="g95"
   style="fill:none;stroke:#ffffff;stroke-opacity:1;stroke-width:2.6;stroke-dasharray:none">
			<circle
   cx="-146.1"
   cy="546.8"
   r="4.1"
   id="circle91"
   style="fill:none;stroke:#ffffff;stroke-opacity:1;stroke-width:2.6;stroke-dasharray:none" />
			<circle
   cx="-131.4"
   cy="546.8"
   r="4.1"
   id="circle92"
   style="fill:none;stroke:#ffffff;stroke-opacity:1;stroke-width:2.6;stroke-dasharray:none" />
			<circle
   cx="-138.8"
   cy="557.5"
   r="4.1"
   id="circle93"
   style="fill:none;stroke:#ffffff;stroke-opacity:1;stroke-width:2.6;stroke-dasharray:none" />
			<circle
   cx="-138.8"
   cy="536.6"
   r="4.1"
   id="circle94"
   style="fill:none;stroke:#ffffff;stroke-opacity:1;stroke-width:2.6;stroke-dasharray:none" />
			<circle
   cx="-124.4"
   cy="536.6"
   r="4.1"
   id="circle95"
   style="fill:none;stroke:#ffffff;stroke-opacity:1;stroke-width:2.6;stroke-dasharray:none" />
		</g>
	</g>
	<g
   id="g99"
   style="fill:none;stroke:#ffffff;stroke-opacity:1;stroke-width:1;stroke-dasharray:none">
		<circle
   class="st18"
   cx="-153"
   cy="603.1"
   r="20.2"
   id="circle96"
   style="fill:none;stroke:#ffffff;stroke-opacity:1;stroke-width:3.5;stroke-dasharray:none" />
		<g
   id="g98"
   style="fill:none;stroke:#ffffff;stroke-opacity:1;stroke-width:1;stroke-dasharray:none">
			<path
   class="st19"
   d="M-151.9,609.7v-2.8v-3.5v-6.5c0-0.5,0.1-0.8,0.3-1c0.1-0.2,0.4-0.3,0.7-0.2c0.6,0.2,0.9,0.7,0.9,1.7v6.9     c0.8,0.4,1.5,0.5,2.1,0.5s1.2-0.2,1.6-0.5c1-0.7,1.5-1.9,1.5-3.7c0-1.9-0.4-3.4-1.2-4.3c-0.8-1-2.1-1.9-4.1-2.6     c-1.3-0.4-2.5-0.8-3.6-1.1s-2-0.5-2.9-0.7v12.2l0,0v2.7l0,0v1.7l0,0v2.5l0,0v1.5l4.7,1.5v-3.6l0,0V609.7z"
   id="path96"
   style="fill:#ffffff;stroke:#ffffff;stroke-opacity:1;stroke-width:1;stroke-dasharray:none;fill-opacity:1" />
			<path
   class="st19"
   d="M-157,608.7l-1.7,0.6l-0.9,0.4l-1.6,0.3l-1.5-0.2c-0.3-0.2-0.4-0.4-0.2-0.6c0.1-0.1,0.2-0.1,0.3-0.2     c0.1-0.1,0.3-0.1,0.4-0.2l1.1-0.4l4.1-1.5v-2.7l-1.7,0.5l-5.5,2l-1,0.4c-1.5,0.6-2.2,1.2-2.2,1.8c0.1,0.8,1,1.5,2.7,1.9     c0.7,0.2,1.4,0.3,2.1,0.4c0.7,0.1,1.4,0.1,2.2,0.1c1,0,2.1-0.1,3.3-0.3L-157,608.7L-157,608.7z"
   id="path97"
   style="fill:#ffffff;stroke:#ffffff;stroke-opacity:1;stroke-width:1;stroke-dasharray:none;fill-opacity:1" />
			<path
   class="st19"
   d="M-141.2,606.4c-0.9-0.3-1.7-0.5-2.5-0.6s-1.7-0.2-2.5-0.1c-0.9,0-1.9,0.2-2.8,0.3c-0.8,0.2-1.7,0.4-2.6,0.8     v2.8l3.9-1.4l1.6-0.5l1.1-0.3h1.4c0.3,0.1,0.6,0.2,0.7,0.4c0,0.2-0.2,0.4-0.8,0.6l-1.4,0.5l-6.5,2.4v2.7l3.5-1.3l6.4-2.3l0.7-0.4     c1.5-0.5,2.2-1.2,2.2-1.9C-138.8,607.5-139.6,606.9-141.2,606.4z"
   id="path98"
   style="fill:#ffffff;stroke:#ffffff;stroke-opacity:1;stroke-width:1;stroke-dasharray:none;fill-opacity:1" />
		</g>
	</g>
	
	
	<g
   id="g120"
   style="display:inline;fill:none;stroke:#ffffff;stroke-opacity:1;stroke-width:3.5;stroke-dasharray:none">
		
		
		<g
   id="g109"
   style="fill:none;stroke:#ffffff;stroke-opacity:1;stroke-width:3.5;stroke-dasharray:none">
			<g
   id="g108"
   style="fill:none;stroke:#ffffff;stroke-opacity:1;stroke-width:3.5;stroke-dasharray:none">
				
				<path
   class="st11"
   d="m -315.5,384.6 c -6.9,0 -12.5,5.6 -12.5,12.5 v 18.3 c 0,6.9 5.6,12.5 12.5,12.5 6.9,0 12.5,-5.6 12.5,-12.5 v -18.3 c 0,-6.9 -5.6,-12.5 -12.5,-12.5 z"
   id="path108"
   style="fill:none;stroke:#ffffff;stroke-opacity:1;stroke-width:3.5;stroke-dasharray:none" />
			</g>
		</g>
		<g
   id="g111"
   style="fill:none;stroke:#ffffff;stroke-opacity:1;stroke-width:3.5;stroke-dasharray:none">
			<g
   id="g110"
   style="fill:none;stroke:#ffffff;stroke-opacity:1;stroke-width:3.5;stroke-dasharray:none">
				
				<path
   class="st11"
   d="m 9.5,384.6 c -6.9,0 -12.5,5.6 -12.5,12.5 v 18.3 c 0,6.9 5.6,12.5 12.5,12.5 6.9,0 12.5,-5.6 12.5,-12.5 v -18.3 c 0,-6.9 -5.6,-12.5 -12.5,-12.5 z"
   id="path110"
   style="fill:none;stroke:#ffffff;stroke-opacity:1;stroke-width:3.5;stroke-dasharray:none" />
			</g>
		</g>
		<g
   id="g119"
   style="fill:none;stroke:#ffffff;stroke-opacity:1;stroke-width:3.5;stroke-dasharray:none">
			<g
   id="g112"
   style="fill:none;stroke:#ffffff;stroke-opacity:1;stroke-width:3.5;stroke-dasharray:none">
				<path
   class="st11"
   d="m -414.8,488.3 c 1.4,-2 1.2,-2.9 1.2,-2.9 0,0 0.2,-0.9 -1.2,-2.9 -1.4,-2 -15,-13.6 -15.7,-14 -0.7,-0.4 -28.5,-2.2 -31.4,1.3 -2.9,3.5 -2.6,15.6 -2.6,15.6 0,0 -0.3,12.1 2.6,15.6 2.9,3.5 30.7,1.7 31.4,1.3 0.7,-0.4 14.3,-12 15.7,-14 z"
   id="path111"
   style="fill:none;stroke:#ffffff;stroke-opacity:1;stroke-width:3.5;stroke-dasharray:none" />
				<path
   class="st24"
   d="m -414.8,488.3 c 1.4,-2 1.2,-2.9 1.2,-2.9 0,0 0.2,-0.9 -1.2,-2.9 -0.9,-1.3 -6.9,-6.6 -11.2,-10.3 -2.1,3.9 -3.4,8.4 -3.4,13.2 0,4.8 1.2,9.3 3.4,13.2 4.3,-3.7 10.3,-9 11.2,-10.3 z"
   id="path112"
   style="fill:none;stroke:#ffffff;stroke-opacity:1;stroke-width:3.5;stroke-dasharray:none" />
			</g>
			<g
   id="g114"
   style="fill:none;stroke:#ffffff;stroke-opacity:1;stroke-width:3.5;stroke-dasharray:none">
				<path
   class="st11"
   d="m -405,472.7 c 2,1.4 2.9,1.2 2.9,1.2 0,0 0.9,0.2 2.9,-1.2 2,-1.4 13.6,-15 14,-15.7 0.4,-0.7 2.2,-28.5 -1.3,-31.4 -3.5,-2.9 -15.6,-2.6 -15.6,-2.6 0,0 -12.1,-0.3 -15.6,2.6 -3.5,2.9 -1.7,30.7 -1.3,31.4 0.5,0.7 12,14.3 14,15.7 z"
   id="path113"
   style="fill:none;stroke:#ffffff;stroke-opacity:1;stroke-width:3.5;stroke-dasharray:none" />
				<path
   class="st24"
   d="m -405,472.7 c 2,1.4 2.9,1.2 2.9,1.2 0,0 0.9,0.2 2.9,-1.2 1.3,-0.9 6.6,-6.9 10.3,-11.2 -3.9,-2.1 -8.4,-3.4 -13.2,-3.4 -4.8,0 -9.3,1.2 -13.2,3.4 3.8,4.3 9,10.3 10.3,11.2 z"
   id="path114"
   style="fill:none;stroke:#ffffff;stroke-opacity:1;stroke-width:3.5;stroke-dasharray:none" />
			</g>
			<g
   id="g116"
   style="fill:none;stroke:#ffffff;stroke-opacity:1;stroke-width:3.5;stroke-dasharray:none">
				<path
   class="st11"
   d="m -342.3,469.9 c -2.9,-3.5 -30.7,-1.7 -31.4,-1.3 -0.7,0.4 -14.3,12 -15.7,14 -1.4,2 -1.2,2.9 -1.2,2.9 0,0 -0.2,0.9 1.2,2.9 1.4,2 15,13.6 15.7,14 0.7,0.4 28.5,2.2 31.4,-1.3 2.9,-3.5 2.6,-15.6 2.6,-15.6 0,0 0.3,-12.1 -2.6,-15.6 z"
   id="path115"
   style="fill:none;stroke:#ffffff;stroke-opacity:1;stroke-width:3.5;stroke-dasharray:none" />
				<path
   class="st24"
   d="m -378.1,472.3 c -4.3,3.7 -10.3,9 -11.2,10.3 -1.4,2 -1.2,2.9 -1.2,2.9 0,0 -0.2,0.9 1.2,2.9 0.9,1.3 6.9,6.6 11.2,10.3 2.1,-3.9 3.4,-8.4 3.4,-13.2 0,-4.8 -1.3,-9.3 -3.4,-13.2 z"
   id="path116"
   style="fill:none;stroke:#ffffff;stroke-opacity:1;stroke-width:3.5;stroke-dasharray:none" />
			</g>
			<g
   id="g118"
   style="fill:none;stroke:#ffffff;stroke-opacity:1;stroke-width:3.5;stroke-dasharray:none">
				<path
   class="st11"
   d="m -399.2,498.2 c -2,-1.4 -2.9,-1.2 -2.9,-1.2 0,0 -0.9,-0.2 -2.9,1.2 -2,1.4 -13.6,15 -14,15.7 -0.4,0.7 -2.2,28.5 1.3,31.4 3.5,2.9 15.6,2.6 15.6,2.6 0,0 12.1,0.3 15.6,-2.6 3.5,-2.9 1.7,-30.7 1.3,-31.4 -0.4,-0.8 -12,-14.3 -14,-15.7 z"
   id="path117"
   style="fill:none;stroke:#ffffff;stroke-opacity:1;stroke-width:3.5;stroke-dasharray:none" />
				<path
   class="st24"
   d="m -399.2,498.2 c -2,-1.4 -2.9,-1.2 -2.9,-1.2 0,0 -0.9,-0.2 -2.9,1.2 -1.3,0.9 -6.6,6.9 -10.3,11.2 3.9,2.1 8.4,3.4 13.2,3.4 4.8,0 9.3,-1.2 13.2,-3.4 -3.7,-4.3 -9,-10.3 -10.3,-11.2 z"
   id="path118"
   style="fill:none;stroke:#ffffff;stroke-opacity:1;stroke-width:3.5;stroke-dasharray:none" />
			</g>
		</g>
	</g>
	
	
	
	<g
   id="g127"
   style="display:inline;fill:none;stroke:#ffffff;stroke-opacity:1;stroke-width:3.5;stroke-dasharray:none">
		
		<g
   id="g126"
   style="display:inline;fill:none;stroke:#ffffff;stroke-opacity:1;stroke-width:3.5;stroke-dasharray:none">
			<path
   class="st11"
   d="m -25.6,365.4 c 0,-1 -0.8,-1.9 -1.9,-1.9 H -153 v 0 h -125.6 c -1,0 -1.9,0.8 -1.9,1.9 v 6 123.2 c 0,8.6 7,15.6 15.6,15.6 H -153 v 0 h 111.9 c 8.6,0 15.6,-7 15.6,-15.6 V 371.5 Z"
   id="path124"
   style="display:inline;fill:none;stroke:#ffffff;stroke-opacity:1;stroke-width:3.5;stroke-dasharray:none" />
			<g
   class="st26"
   id="g125"
   style="fill:none;stroke:#ffffff;stroke-opacity:1;stroke-width:3.5;stroke-dasharray:none">

					<pattern
   id="SVGID_8_"
   xlink:href="#SVGID_4_"
   patternTransform="matrix(0.1017 0 0 -0.1017 -14417.875 -1652.5269)"
   class="st26">
				</pattern>
				<path
   class="st27"
   d="m -280.5,494.6 c 0,8.6 7,15.6 15.6,15.6 H -153 v 0 h 111.9 c 8.6,0 15.6,-7 15.6,-15.6 V 388.1 h -254.9 v 106.5 z"
   id="path125"
   style="display:inline;fill:none;stroke:#ffffff;stroke-opacity:1;stroke-width:3.5;stroke-dasharray:none" />
			</g>
		</g>
	</g>
</g>
<g
   id="g147"
   style="stroke:#ffffff;stroke-opacity:1;fill:none;stroke-width:3.5;stroke-dasharray:none">
	<g
   id="g137"
   style="stroke:#ffffff;stroke-opacity:1;fill:none;stroke-width:3.5;stroke-dasharray:none">
		<g
   id="g132"
   style="stroke:#ffffff;stroke-opacity:1;fill:none;stroke-width:3.5;stroke-dasharray:none">
			<g
   id="g129"
   style="stroke:#ffffff;stroke-opacity:1;fill:none;stroke-width:3.5;stroke-dasharray:none">
				<path
   class="st11"
   d="M141.1,331.9c0,0-32.7-3.2-50.6-3.2s-48.3,2.4-48.3,2.4s3.1-44.7,4.8-52c1.6-7.3,7.7-21.3,16.9-27.9      s12-10.1,22.8-10.1s25.4,6.4,34.6,21.4C130.4,277.5,141.1,331.9,141.1,331.9z"
   id="path128"
   style="stroke:#ffffff;stroke-opacity:1;fill:none;stroke-width:3.5;stroke-dasharray:none" />
				<path
   class="st10"
   d="M42.7,324.3c0,0,26.1-4.4,49-4.4c22.8,0,47.9,4.4,47.9,4.4c1,4.7,1.6,7.6,1.6,7.6s-32.7-3.2-50.6-3.2      s-48.3,2.4-48.3,2.4S42.3,328.4,42.7,324.3z"
   id="path129"
   style="stroke:#ffffff;stroke-opacity:1;fill:none;stroke-width:3.5;stroke-dasharray:none" />
			</g>
			
		</g>
		<g
   class="st29"
   id="g136"
   style="stroke:#ffffff;stroke-opacity:1;fill:none;stroke-width:3.5;stroke-dasharray:none">
			<g
   class="st30"
   id="g133"
   style="stroke:#ffffff;stroke-opacity:1;fill:none;stroke-width:3.5;stroke-dasharray:none">
				<path
   class="st31"
   d="M141.1,331.9c0,0-32.7-3.2-50.6-3.2s-48.3,2.4-48.3,2.4s3.1-44.7,4.8-52c1.6-7.3,7.7-21.3,16.9-27.9      s12-10.1,22.8-10.1s25.4,6.4,34.6,21.4C130.4,277.5,141.1,331.9,141.1,331.9z"
   id="path132"
   style="stroke:#ffffff;stroke-opacity:1;fill:none;stroke-width:3.5;stroke-dasharray:none" />
				<path
   class="st32"
   d="M42.7,324.3c0,0,26.1-4.4,49-4.4c22.8,0,47.9,4.4,47.9,4.4c1,4.7,1.6,7.6,1.6,7.6s-32.7-3.2-50.6-3.2      s-48.3,2.4-48.3,2.4S42.3,328.4,42.7,324.3z"
   id="path133"
   style="stroke:#ffffff;stroke-opacity:1;fill:none;stroke-width:3.5;stroke-dasharray:none" />
			</g>
			
		</g>
	</g>
	<g
   id="g146"
   style="stroke:#ffffff;stroke-opacity:1;fill:none;stroke-width:3.5;stroke-dasharray:none">
		<g
   id="g141"
   style="stroke:#ffffff;stroke-opacity:1;fill:none;stroke-width:3.5;stroke-dasharray:none">
			<g
   id="g138"
   style="stroke:#ffffff;stroke-opacity:1;fill:none;stroke-width:3.5;stroke-dasharray:none">
				<path
   class="st11"
   d="M-447.2,331.9c0,0,32.7-3.2,50.6-3.2c17.9,0,48.3,2.4,48.3,2.4s-3.1-44.7-4.8-52      c-1.6-7.3-7.7-21.3-16.9-27.9c-9.2-6.7-12-10.1-22.8-10.1s-25.4,6.4-34.6,21.4C-436.5,277.5-447.2,331.9-447.2,331.9z"
   id="path137"
   style="stroke:#ffffff;stroke-opacity:1;fill:none;stroke-width:3.5;stroke-dasharray:none" />
				<path
   class="st10"
   d="M-348.8,324.3c0,0-26.1-4.4-49-4.4c-22.8,0-47.9,4.4-47.9,4.4c-1,4.7-1.6,7.6-1.6,7.6s32.7-3.2,50.6-3.2      s48.3,2.4,48.3,2.4S-348.4,328.4-348.8,324.3z"
   id="path138"
   style="stroke:#ffffff;stroke-opacity:1;fill:none;stroke-width:3.5;stroke-dasharray:none" />
			</g>
			
		</g>
		<g
   class="st29"
   id="g145"
   style="stroke:#ffffff;stroke-opacity:1;fill:none;stroke-width:3.5;stroke-dasharray:none">
			<g
   class="st30"
   id="g142"
   style="fill:none;stroke:#ffffff;stroke-opacity:1;stroke-width:3.5;stroke-dasharray:none">
				<path
   class="st31"
   d="m -447.2,331.9 c 0,0 32.7,-3.2 50.6,-3.2 17.9,0 48.3,2.4 48.3,2.4 0,0 -3.1,-44.7 -4.8,-52 -1.6,-7.3 -7.7,-21.3 -16.9,-27.9 -9.2,-6.7 -12,-10.1 -22.8,-10.1 -10.8,0 -25.4,6.4 -34.6,21.4 -9.1,15 -19.8,69.4 -19.8,69.4 z"
   id="path141"
   style="fill:none;stroke:#ffffff;stroke-opacity:1;stroke-width:3.5;stroke-dasharray:none" />
				<path
   class="st32"
   d="m -348.8,324.3 c 0,0 -26.1,-4.4 -49,-4.4 -22.8,0 -47.9,4.4 -47.9,4.4 -1,4.7 -1.6,7.6 -1.6,7.6 0,0 32.7,-3.2 50.6,-3.2 17.9,0 48.3,2.4 48.3,2.4 0,0 0,-2.7 -0.4,-6.8 z"
   id="path142"
   style="fill:none;stroke:#ffffff;stroke-opacity:1;stroke-width:3.5;stroke-dasharray:none" />
			</g>
			
		</g>
	</g>
</g>
</svg>
