<?xml version="1.0" encoding="UTF-8"?>
<!-- Generator: Adobe Illustrator 19.0.1, SVG Export Plug-In . SVG Version: 6.00 Build 0)  -->
<svg width="806px" height="598.9px" enable-background="new -556 241.1 806 598.9" version="1.1" viewBox="-556 241.1 806 598.9" xml:space="preserve" xmlns="http://www.w3.org/2000/svg" xmlns:xlink="http://www.w3.org/1999/xlink">
<style type="text/css">
</style>



<pattern id="SVGID_4_" x="-556" y="840" width="71" height="71" overflow="visible" patternUnits="userSpaceOnUse" viewBox="0 -71 71 71">
	
		<polygon class="st0" points="0 0 71 0 71 -71 0 -71"/>
		
			<polygon class="st0" points="0 0 71 0 71 -71 0 -71"/>
			<path class="st2" d="m41.8-35.5c0-3.5-2.8-6.3-6.3-6.3s-6.3 2.8-6.3 6.3 2.8 6.3 6.3 6.3 6.3-2.8 6.3-6.3z"/>
		
	
</pattern>
<g fill="none" stroke="#fff">
	<g stroke-width="3.5">
		<g fill="none" stroke="#fff" stroke-width="3.5">
			<g fill="none" stroke="#fff" stroke-width="3.5">
				<path class="st3" d="m245.3 659.8c-2.9-15.5-17.7-102.5-32-144.6-9.4-27.7-13.1-53-17-64.9-12-35.7-33-65.7-33-65.7s-9.5-13.1-10.1-16.3c-0.6-3.3-4.7-8.6-4.7-8.6s-17.4-5.7-62.3-5.7-53.7 5-53.7 5-2.4 2.9-5.9 4.8c-3.5 1.8-11.7 1.7-11.7 1.7h-33.4s-0.6-0.1-0.9 0.3c-0.4 0.4-0.6 2-0.6 2h-266.1s-0.3-1.7-0.6-2c-0.4-0.4-0.9-0.3-0.9-0.3h-33.4s-8.2 0.2-11.7-1.7c-3.5-1.8-5.9-4.8-5.9-4.8s-8.8-5-53.7-5c-44.8 0-62.3 5.7-62.3 5.7s-4.1 5.3-4.7 8.6-10.1 16.3-10.1 16.3-21 30-33 65.7c-4 11.9-7.7 37.2-17 64.9-14.3 42.1-29.1 129.1-32 144.6-4.3 23.2-4.7 90.1-4.7 90.1s4.5 53.4 36.2 74.9 56.7 14 56.7 14 33.1-8.2 57.8-41.9 56.6-129.2 56.6-129.2 2.2-3 5.7-5.3 6.3-2.6 6.3-2.6 23.821 20.311 54.835 22.129c31.014 1.8183 54.098-22.071 54.098-22.071l74.767 0.04118 75.189-0.0409s21.545 22.279 52.118 21.886c30.574-0.39315 56.393-21.945 56.393-21.945s2.8 0.3 6.3 2.6 5.7 5.3 5.7 5.3 31.9 95.4 56.6 129.2 57.8 41.9 57.8 41.9 25 7.5 56.7-14 36.2-74.9 36.2-74.9-0.2-67-4.6-90.1z"/>
				
					<g fill="none" stroke="#fff" stroke-width="3.5">
						<g fill="none" stroke="#fff" stroke-width="3.5">
							<path class="st4" d="m-519.4 517.1c9.4-27.7 13.1-53 17-64.9 12-35.7 33-65.7 33-65.7s9.5-13.1 10.1-16.3c0.6-3.3 4.7-8.6 4.7-8.6s17.4-5.7 62.3-5.7c44.8 0 53.7 5 53.7 5s2.4 2.9 5.9 4.8c3.5 1.8 11.7 1.7 11.7 1.7h33.4s0.6-0.1 0.9 0.3c0.4 0.4 0.6 2 0.6 2h266.2s0.3-1.7 0.6-2c0.4-0.4 0.9-0.3 0.9-0.3h33.4s8.2 0.2 11.7-1.7c3.5-1.8 5.9-4.8 5.9-4.8s8.8-5 53.7-5 62.3 5.7 62.3 5.7 4.1 5.3 4.7 8.6 10.1 16.3 10.1 16.3 21 30 33 65.7c4 11.9 7.7 37.2 17 64.9 14.3 42.1 29.1 129.1 32 144.6 3.9 20.9 4.6 77.3 4.7 88.3v-0.1s-0.3-66.9-4.7-90.1c-2.9-15.5-17.7-102.5-32-144.6-9.4-27.7-13.1-53-17-64.9-12-35.7-33-65.7-33-65.7s-9.5-13.1-10.1-16.3c-0.6-3.3-4.7-8.6-4.7-8.6s-17.4-5.7-62.3-5.7-53.7 5-53.7 5-2.4 2.9-5.9 4.8c-3.5 1.8-11.7 1.7-11.7 1.7h-33.4s-0.6-0.1-0.9 0.3c-0.4 0.4-0.6 2-0.6 2h-266.2s-0.3-1.7-0.6-2c-0.4-0.4-0.9-0.3-0.9-0.3h-33.4s-8.2 0.2-11.7-1.7c-3.5-1.8-5.9-4.8-5.9-4.8s-8.8-5-53.7-5c-44.8 0-62.3 5.7-62.3 5.7s-4.1 5.3-4.7 8.6-10.1 16.3-10.1 16.3-21 30-33 65.7c-4 11.9-7.7 37.2-17 64.9-14.3 42.1-29.1 129.1-32 144.6-4.3 23.2-4.7 90.1-4.7 90.1v0.1c0.1-10.9 0.7-67.4 4.7-88.3 3-15.4 17.7-102.5 32-144.6z" fill="none" stroke="#fff" stroke-width="3.5"/>
						</g>
					</g>
				
				<path class="st4" d="m-204.8 601.1c0-42.2-34.3-76.5-76.5-76.5s-76.5 34.3-76.5 76.5c0 0.7 0 1.3 0.1 2 0 0.7-0.1 1.3-0.1 2 0 42.2 34.3 76.5 76.5 76.5s76.5-34.3 76.5-76.5c0-0.7 0-1.3-0.1-2 0-0.7 0.1-1.4 0.1-2z"/>
				
				<circle cx="-281.3" cy="597.1" r="51.5"/>
				<path class="st4" d="m51.8 601.1c0-42.2-34.3-76.5-76.5-76.5s-76.5 34.3-76.5 76.5c0 0.7 0 1.3 0.1 2 0 0.7-0.1 1.3-0.1 2 0 42.2 34.3 76.5 76.5 76.5s76.5-34.3 76.5-76.5c0-0.7 0-1.3-0.1-2 0.1-0.7 0.1-1.4 0.1-2z"/>
				
				<circle cx="-24.7" cy="597.1" r="51.5"/>
				
				
				
				
					
					<path class="st9" d="m-325.6 495.2 9.5-8.9c0.5-0.5 0.5-1.2 0-1.7l-9.5-8.9c-0.7-0.7-1.9-0.2-1.9 0.8v17.8c-0.1 1 1.1 1.5 1.9 0.9z"/>
					<path class="st9" d="m-411 410.9h17.8c1 0 1.5-1.2 0.8-1.9l-8.9-9.5c-0.5-0.5-1.2-0.5-1.7 0l-8.9 9.5c-0.6 0.7-0.1 1.9 0.9 1.9z"/>
					<path class="st9" d="m-478.5 475.7-9.5 8.9c-0.5 0.5-0.5 1.2 0 1.7l9.5 8.9c0.7 0.7 1.9 0.2 1.9-0.8v-17.8c0-1-1.2-1.6-1.9-0.9z"/>
					<path class="st9" d="m-393.2 559.9h-17.8c-1 0-1.5 1.2-0.8 1.9l8.9 9.5c0.5 0.5 1.2 0.5 1.7 0l8.9-9.5c0.6-0.7 0.1-1.9-0.9-1.9z"/>
				
			
		
	
	
	
		
			
				<path class="st10" d="m141.2 351c0-0.8-0.4-1.5-1.1-1.9-4.5-2.9-23.4-13.6-51.5-13.6-26.9 0-41.1 5.9-45.1 8-0.8 0.4-1.2 1.2-1.2 2 0 0 9.8-2.9 47.5-2.9s51.4 8.4 51.4 8.4z"/>
				<path class="st11" d="m141.1 357.9v-6.9s-13.7-8.4-51.4-8.4c-37.8 0-47.5 2.9-47.5 2.9v11c7.7-1.3 21.2-2.6 44.1-2.6 28.5 0.1 45.9 2.4 54.8 4z"/>
			
		
		
			
				<path class="st10" d="m-447.2 351c0-0.8 0.4-1.5 1.1-1.9 4.5-2.9 23.4-13.6 51.5-13.6 26.9 0 41.1 5.9 45.1 8 0.8 0.4 1.2 1.2 1.2 2 0 0-9.8-2.9-47.5-2.9s-51.4 8.4-51.4 8.4z"/>
				<path class="st11" d="m-447.1 357.9v-6.9s13.7-8.4 51.4-8.4c37.8 0 47.5 2.9 47.5 2.9v11c-7.7-1.3-21.2-2.6-44.1-2.6-28.5 0.1-45.9 2.4-54.8 4z"/>
			</g>
		</g>
	</g>
	<g>
		<g fill="none" stroke="#fff">
			
				<g fill="none" stroke-width="3.5">
					<path class="st12" d="m153.9 512.1c-14.5 0-26.3-11.8-26.3-26.3s11.8-26.3 26.3-26.3 26.3 11.8 26.3 26.3-11.8 26.3-26.3 26.3z" fill="none" stroke="#fff" stroke-width="3.5"/>
					
				</g>
				<path class="st14" d="m153.9 467c-10.4 0-18.9 8.5-18.9 18.9s8.5 18.9 18.9 18.9 18.9-8.5 18.9-18.9-8.4-18.9-18.9-18.9zm0 34.9c-8.9 0-16-7.2-16-16 0-8.9 7.2-16 16-16s16 7.2 16 16c0.1 8.9-7.1 16-16 16z" fill="#fff"/>
			
			
				<g fill="none" stroke-width="3.5">
					<path class="st12" d="m96.3 569.7c-14.5 0-26.3-11.8-26.3-26.3s11.8-26.3 26.3-26.3 26.3 11.8 26.3 26.3-11.8 26.3-26.3 26.3z" fill="none" stroke="#fff" stroke-width="3.5"/>
					
				</g>
				<polygon class="st15" points="110.7 531.1 108.7 529.1 96.3 541.5 84 529.1 82 531.1 94.3 543.5 82 555.8 84 557.9 96.3 545.5 108.7 557.9 110.7 555.8 98.3 543.5" fill="#fff"/>
			
			
				<g fill="none" stroke-width="3.5">
					<path class="st12" d="m38.8 512.1c-14.5 0-26.3-11.8-26.3-26.3s11.8-26.3 26.3-26.3 26.2 11.9 26.2 26.4-11.8 26.2-26.2 26.2z" fill="none" stroke="#fff" stroke-width="3.5"/>
					
				</g>
				<path class="st16" d="m50.3 471.5h-25.8v28.6h28.6v-28.6h-2.8zm0 25.9h-23v-23h23v23z" fill="#fff"/>
			
			<g>
				<g fill="none" stroke-width="3.5">
					<path class="st12" d="m96.3 454.6c-14.5 0-26.3-11.8-26.3-26.3s11.8-26.3 26.3-26.3 26.3 11.8 26.3 26.3-11.8 26.3-26.3 26.3z" fill="none" stroke="#fff" stroke-width="3.5"/>
					
				</g>
				<path class="st17" d="m112.3 436.3-16-27.6-16 27.6-1.6 2.8h35.2zm-16 0h-12.7l12.7-21.9 12.7 21.9z" fill="#fff"/>
			</g>
		</g>
	</g>
	<g stroke-width="2.6">
		<g fill="none" stroke="#fff" stroke-width="2.6">
			<circle cx="-153" cy="557.5" r="4.1"/>
			<circle cx="-153" cy="536.6" r="4.1"/>
			<circle cx="-159.9" cy="546.8" r="4.1"/>
			<circle cx="-174.6" cy="546.8" r="4.1"/>
			<circle cx="-167.3" cy="557.5" r="4.1"/>
			<circle cx="-167.3" cy="536.6" r="4.1"/>
			<circle cx="-181.6" cy="536.6" r="4.1"/>
		
		
			<circle cx="-146.1" cy="546.8" r="4.1"/>
			<circle cx="-131.4" cy="546.8" r="4.1"/>
			<circle cx="-138.8" cy="557.5" r="4.1"/>
			<circle cx="-138.8" cy="536.6" r="4.1"/>
			<circle cx="-124.4" cy="536.6" r="4.1"/>
		</g>
	</g>
	
		<circle class="st18" cx="-153" cy="603.1" r="20.2" fill="none" stroke-width="3.5"/>
		<g fill="#fff">
			<path class="st19" d="m-151.9 609.7v-12.8c0-0.5 0.1-0.8 0.3-1 0.1-0.2 0.4-0.3 0.7-0.2 0.6 0.2 0.9 0.7 0.9 1.7v6.9c0.8 0.4 1.5 0.5 2.1 0.5s1.2-0.2 1.6-0.5c1-0.7 1.5-1.9 1.5-3.7 0-1.9-0.4-3.4-1.2-4.3-0.8-1-2.1-1.9-4.1-2.6-1.3-0.4-2.5-0.8-3.6-1.1s-2-0.5-2.9-0.7v20.6l4.7 1.5v-4.3z"/>
			<path class="st19" d="m-157 608.7-1.7 0.6-0.9 0.4-1.6 0.3-1.5-0.2c-0.3-0.2-0.4-0.4-0.2-0.6 0.1-0.1 0.2-0.1 0.3-0.2s0.3-0.1 0.4-0.2l1.1-0.4 4.1-1.5v-2.7l-1.7 0.5-5.5 2-1 0.4c-1.5 0.6-2.2 1.2-2.2 1.8 0.1 0.8 1 1.5 2.7 1.9 0.7 0.2 1.4 0.3 2.1 0.4s1.4 0.1 2.2 0.1c1 0 2.1-0.1 3.3-0.3l0.1-2.3z"/>
			<path class="st19" d="m-141.2 606.4c-0.9-0.3-1.7-0.5-2.5-0.6s-1.7-0.2-2.5-0.1c-0.9 0-1.9 0.2-2.8 0.3-0.8 0.2-1.7 0.4-2.6 0.8v2.8l3.9-1.4 1.6-0.5 1.1-0.3h1.4c0.3 0.1 0.6 0.2 0.7 0.4 0 0.2-0.2 0.4-0.8 0.6l-1.4 0.5-6.5 2.4v2.7l3.5-1.3 6.4-2.3 0.7-0.4c1.5-0.5 2.2-1.2 2.2-1.9 0-0.6-0.8-1.2-2.4-1.7z"/>
		</g>
	
	
	
	<g stroke-width="3.5">
		
		
		
			<g fill="none" stroke="#fff" stroke-width="3.5">
				
				<path class="st11" d="m-315.5 384.6c-6.9 0-12.5 5.6-12.5 12.5v18.3c0 6.9 5.6 12.5 12.5 12.5s12.5-5.6 12.5-12.5v-18.3c0-6.9-5.6-12.5-12.5-12.5z"/>
			
		
		
			
				
				<path class="st11" d="m9.5 384.6c-6.9 0-12.5 5.6-12.5 12.5v18.3c0 6.9 5.6 12.5 12.5 12.5s12.5-5.6 12.5-12.5v-18.3c0-6.9-5.6-12.5-12.5-12.5z"/>
			
		
		
			
				<path class="st11" d="m-414.8 488.3c1.4-2 1.2-2.9 1.2-2.9s0.2-0.9-1.2-2.9-15-13.6-15.7-14-28.5-2.2-31.4 1.3-2.6 15.6-2.6 15.6-0.3 12.1 2.6 15.6 30.7 1.7 31.4 1.3 14.3-12 15.7-14z"/>
				<path class="st24" d="m-414.8 488.3c1.4-2 1.2-2.9 1.2-2.9s0.2-0.9-1.2-2.9c-0.9-1.3-6.9-6.6-11.2-10.3-2.1 3.9-3.4 8.4-3.4 13.2s1.2 9.3 3.4 13.2c4.3-3.7 10.3-9 11.2-10.3z"/>
			
			
				<path class="st11" d="m-405 472.7c2 1.4 2.9 1.2 2.9 1.2s0.9 0.2 2.9-1.2 13.6-15 14-15.7 2.2-28.5-1.3-31.4-15.6-2.6-15.6-2.6-12.1-0.3-15.6 2.6-1.7 30.7-1.3 31.4c0.5 0.7 12 14.3 14 15.7z"/>
				<path class="st24" d="m-405 472.7c2 1.4 2.9 1.2 2.9 1.2s0.9 0.2 2.9-1.2c1.3-0.9 6.6-6.9 10.3-11.2-3.9-2.1-8.4-3.4-13.2-3.4s-9.3 1.2-13.2 3.4c3.8 4.3 9 10.3 10.3 11.2z"/>
			
			
				<path class="st11" d="m-342.3 469.9c-2.9-3.5-30.7-1.7-31.4-1.3s-14.3 12-15.7 14-1.2 2.9-1.2 2.9-0.2 0.9 1.2 2.9 15 13.6 15.7 14 28.5 2.2 31.4-1.3 2.6-15.6 2.6-15.6 0.3-12.1-2.6-15.6z"/>
				<path class="st24" d="m-378.1 472.3c-4.3 3.7-10.3 9-11.2 10.3-1.4 2-1.2 2.9-1.2 2.9s-0.2 0.9 1.2 2.9c0.9 1.3 6.9 6.6 11.2 10.3 2.1-3.9 3.4-8.4 3.4-13.2s-1.3-9.3-3.4-13.2z"/>
			
			
				<path class="st11" d="m-399.2 498.2c-2-1.4-2.9-1.2-2.9-1.2s-0.9-0.2-2.9 1.2-13.6 15-14 15.7-2.2 28.5 1.3 31.4 15.6 2.6 15.6 2.6 12.1 0.3 15.6-2.6 1.7-30.7 1.3-31.4c-0.4-0.8-12-14.3-14-15.7z"/>
				<path class="st24" d="m-399.2 498.2c-2-1.4-2.9-1.2-2.9-1.2s-0.9-0.2-2.9 1.2c-1.3 0.9-6.6 6.9-10.3 11.2 3.9 2.1 8.4 3.4 13.2 3.4s9.3-1.2 13.2-3.4c-3.7-4.3-9-10.3-10.3-11.2z"/>
			</g>
		
	
	
	
	
	
		
		<g>
			<path class="st11" d="m-25.6 365.4c0-1-0.8-1.9-1.9-1.9h-251.1c-1 0-1.9 0.8-1.9 1.9v129.2c0 8.6 7 15.6 15.6 15.6h223.8c8.6 0 15.6-7 15.6-15.6v-123.1z"/>
			<g class="st26">

					<pattern id="SVGID_8_" class="st26" patternTransform="matrix(.1017 0 0 -.1017 -14418 -1652.5)" xlink:href="#SVGID_4_">
				</pattern>
				<path class="st27" d="m-280.5 494.6c0 8.6 7 15.6 15.6 15.6h223.8c8.6 0 15.6-7 15.6-15.6v-106.5h-254.9v106.5z" fill="none" stroke="#fff" stroke-width="3.5"/>
			</g>
		</g>
	</g>
</g>
<g fill="none" stroke="#fff" stroke-width="3.5">
	<g fill="none" stroke="#fff" stroke-width="3.5">
		
			<g fill="none" stroke="#fff" stroke-width="3.5">
				<path class="st11" d="m141.1 331.9s-32.7-3.2-50.6-3.2-48.3 2.4-48.3 2.4 3.1-44.7 4.8-52c1.6-7.3 7.7-21.3 16.9-27.9s12-10.1 22.8-10.1 25.4 6.4 34.6 21.4c9.1 15 19.8 69.4 19.8 69.4z"/>
				<path class="st10" d="m42.7 324.3s26.1-4.4 49-4.4c22.8 0 47.9 4.4 47.9 4.4 1 4.7 1.6 7.6 1.6 7.6s-32.7-3.2-50.6-3.2-48.3 2.4-48.3 2.4 0-2.7 0.4-6.8z"/>
			</g>
			
		
		<g class="st29">
			<g class="st30">
				<path class="st31" d="m141.1 331.9s-32.7-3.2-50.6-3.2-48.3 2.4-48.3 2.4 3.1-44.7 4.8-52c1.6-7.3 7.7-21.3 16.9-27.9s12-10.1 22.8-10.1 25.4 6.4 34.6 21.4c9.1 15 19.8 69.4 19.8 69.4z"/>
				<path class="st32" d="m42.7 324.3s26.1-4.4 49-4.4c22.8 0 47.9 4.4 47.9 4.4 1 4.7 1.6 7.6 1.6 7.6s-32.7-3.2-50.6-3.2-48.3 2.4-48.3 2.4 0-2.7 0.4-6.8z"/>
			</g>
			<g class="st33">
				
					<path d="m92.7 306.8c-2.1 1.7-3.2 2.6-3.2 2.6-1.2 1.2-1.9 2.7-2 4.5h9.8v-2.6h-6.3c0.3-0.5 1-1.2 2.1-1.9 1.4-0.9 2.3-1.6 2.7-2.1 0.9-1 1.3-2.1 1.3-3.3 0-1.4-0.5-2.5-1.4-3.3s-2.1-1.2-3.5-1.2c-3.1 0-4.7 1.7-4.7 5h2.7c0-1.8 0.7-2.7 2.1-2.7 1.3 0 2 0.7 2 2.1 0.1 1-0.5 2-1.6 2.9z" fill="none" stroke="#fff" stroke-width="3.5"/>
				
				<path d="m75.1 308.3h3c1.5 0 2.3 0.6 2.4 1.9 0.1 1.2 0.2 2.5 0.3 3.8h3.3v-0.4c-0.5-0.2-0.7-0.7-0.7-1.5 0-0.2 0-0.4 0.1-0.8v-0.7c0-1.7-0.6-2.9-1.8-3.5 1.4-0.5 2.2-1.6 2.2-3.4 0-1.3-0.4-2.3-1.3-3-0.8-0.7-1.9-1-3.2-1h-7.3v14.3h3zm0-6.3h3.7c1.4 0 2.1 0.6 2.1 1.9s-0.8 1.9-2.3 1.9h-3.5z"/>
			</g>
		</g>
	
	
		
			<g fill="none" stroke="#fff" stroke-width="3.5">
				<path class="st11" d="m-447.2 331.9s32.7-3.2 50.6-3.2 48.3 2.4 48.3 2.4-3.1-44.7-4.8-52c-1.6-7.3-7.7-21.3-16.9-27.9-9.2-6.7-12-10.1-22.8-10.1s-25.4 6.4-34.6 21.4c-9.1 15-19.8 69.4-19.8 69.4z"/>
				<path class="st10" d="m-348.8 324.3s-26.1-4.4-49-4.4c-22.8 0-47.9 4.4-47.9 4.4-1 4.7-1.6 7.6-1.6 7.6s32.7-3.2 50.6-3.2 48.3 2.4 48.3 2.4 0-2.7-0.4-6.8z"/>
			</g>
			
		
		<g class="st29">
			<g class="st30">
				<path class="st31" d="m-447.2 331.9s32.7-3.2 50.6-3.2 48.3 2.4 48.3 2.4-3.1-44.7-4.8-52c-1.6-7.3-7.7-21.3-16.9-27.9-9.2-6.7-12-10.1-22.8-10.1s-25.4 6.4-34.6 21.4c-9.1 15-19.8 69.4-19.8 69.4z"/>
				<path class="st32" d="m-348.8 324.3s-26.1-4.4-49-4.4c-22.8 0-47.9 4.4-47.9 4.4-1 4.7-1.6 7.6-1.6 7.6s32.7-3.2 50.6-3.2 48.3 2.4 48.3 2.4 0-2.7-0.4-6.8z"/>
			</g>
			<g class="st33">
				
					<path d="m-382.7 306.8c-2.1 1.7-3.2 2.6-3.2 2.6-1.2 1.2-1.9 2.7-2 4.5h9.8v-2.6h-6.2c0.3-0.5 1-1.2 2.1-1.9 1.4-0.9 2.3-1.6 2.7-2.1 0.9-1 1.3-2.1 1.3-3.3 0-1.4-0.5-2.5-1.4-3.3s-2.1-1.2-3.5-1.2c-3.1 0-4.7 1.7-4.7 5h2.7c0-1.8 0.7-2.7 2.1-2.7 1.3 0 2 0.7 2 2.1 0 1-0.5 2-1.7 2.9z" fill="none" stroke="#fff" stroke-width="3.5"/>
				
				<polygon points="-401.3 313.9 -391.2 313.9 -391.2 311.2 -398.3 311.2 -398.3 299.6 -401.3 299.6"/>
			</g>
		</g>
	</g>
</g>
</svg>
