<?xml version="1.0" encoding="UTF-8"?>
<!-- Generator: Adobe Illustrator 19.0.1, SVG Export Plug-In . SVG Version: 6.00 Build 0)  -->
<svg width="286px" height="94px" enable-background="new -816 494 286 94" version="1.1" viewBox="-816 494 286 94" xml:space="preserve" xmlns="http://www.w3.org/2000/svg">
<style type="text/css">
	.st0{fill:#2c2c2c;}
	.st1{fill:#535353;}
	.st2{fill:#414141;}
	.st3{fill:#d9d9d9;}
	.st4{fill:#535353;}
	.st5{fill:#D3D3D3;}
	.st6{opacity:0.5;}
</style>

	
		
			
				<path class="st0" d="m-769 586.5c-25.1 0-45.5-20.4-45.5-45.5s20.4-45.5 45.5-45.5 45.5 20.4 45.5 45.5-20.4 45.5-45.5 45.5z" fill="#d9d9d9"/>
				<g>
					<path class="st1" d="m-769 497c24.3 0 44 19.7 44 44s-19.7 44-44 44-44-19.7-44-44 19.7-44 44-44m0-3c-26 0-47 21-47 47s21 47 47 47 47-21 47-47-21-47-47-47z"/>
				</g>
			
			<circle class="st2" cx="-769" cy="541" r="27.3" fill="#d3d3d3"/>
		
	
	
		
			<path class="st3" d="m-673 586.5c-25.1 0-45.5-20.4-45.5-45.5s20.4-45.5 45.5-45.5 45.5 20.4 45.5 45.5-20.4 45.5-45.5 45.5z" fill="#f9f9f9"/>
			
				<path class="st4" d="m-673 497c24.3 0 44 19.7 44 44s-19.7 44-44 44-44-19.7-44-44 19.7-44 44-44m0-3c-26 0-47 21-47 47s21 47 47 47 47-21 47-47-21-47-47-47z"/>
			
		
		<circle class="st5" cx="-673" cy="541" r="27.3"/>
		
	
	
		
			<path class="st3" d="m-577 586.5c-25.1 0-45.5-20.4-45.5-45.5s20.4-45.5 45.5-45.5 45.5 20.4 45.5 45.5-20.4 45.5-45.5 45.5z" fill="#f9f9f9"/>
			
				<path class="st4" d="m-577 497c24.3 0 44 19.7 44 44s-19.7 44-44 44-44-19.7-44-44 19.7-44 44-44m0-3c-26 0-47 21-47 47s21 47 47 47 47-21 47-47-21-47-47-47z"/>
			
		
		<circle class="st5" cx="-577" cy="541" r="27.3"/>
		
	

</svg>
