<?xml version="1.0" encoding="UTF-8"?>
<!-- Generator: Adobe Illustrator 19.0.1, SVG Export Plug-In . SVG Version: 6.00 Build 0)  -->
<svg width="199.9px" height="90.8px" enable-background="new -859 495.2 199.9 90.8" version="1.1" viewBox="-859 495.2 199.9 90.8" xml:space="preserve" xmlns="http://www.w3.org/2000/svg">
<style type="text/css">
	.st0{fill:#D3D3D3;}
	.st1{fill:#9F9F9F;}
	.st2{opacity:0.25;}
</style>

	
		<path class="st0" d="m-659.1 586s-32.7-3.2-50.6-3.2-48.3 2.4-48.3 2.4 3.1-44.7 4.8-52c1.6-7.3 7.7-21.3 16.9-27.9 9.2-6.7 12-10.1 22.8-10.1s25.4 6.4 34.6 21.4c9.1 15 19.8 69.4 19.8 69.4z"/>
		<path class="st1" d="m-757.5 578.4s26.1-4.4 49-4.4c22.8 0 47.9 4.4 47.9 4.4 1 4.7 1.6 7.6 1.6 7.6s-32.7-3.2-50.6-3.2-48.3 2.4-48.3 2.4 0-2.7 0.4-6.8z"/>
	
	


	
		<path class="st0" d="m-859 586s32.7-3.2 50.6-3.2 48.3 2.4 48.3 2.4-3.1-44.7-4.8-52c-1.6-7.3-7.7-21.3-16.9-27.9s-12-10.1-22.8-10.1-25.4 6.4-34.6 21.4c-9.1 15-19.8 69.4-19.8 69.4z"/>
		<path class="st1" d="m-760.6 578.4s-26.1-4.4-49-4.4c-22.8 0-47.9 4.4-47.9 4.4-1 4.7-1.6 7.6-1.6 7.6s32.7-3.2 50.6-3.2 48.3 2.4 48.3 2.4 0-2.7-0.4-6.8z"/>
	
	

</svg>
